<svg width="48" height="48" viewBox="0 0 48 48" fill="none" xmlns="http://www.w3.org/2000/svg">
<rect width="48" height="48" rx="8" fill="url(#paint0_linear_6331_65614)"/>
<path d="M36.8672 10.0645H30.923C30.5468 10.0645 30.2418 10.3733 30.2418 10.7543V13.3759H27.3191C25.815 13.3775 24.5961 14.612 24.5945 16.1354V20.5128H22.5139C22.1376 20.5128 21.8327 20.8217 21.8327 21.2027V23.3101H17.7584V20.6885C17.7584 20.3075 17.4535 19.9987 17.0773 19.9987H11.1327C10.7565 19.9987 10.4516 20.3075 10.4516 20.6885V27.3113C10.4516 27.6924 10.7565 28.0012 11.1327 28.0012H17.0773C17.4535 28.0012 17.7584 27.6924 17.7584 27.3113V24.6898H21.8327V26.7972C21.8327 27.1782 22.1376 27.487 22.5139 27.487H24.5945V31.8645C24.5961 33.3879 25.815 34.6224 27.3191 34.624H30.2418V37.2455C30.2418 37.6266 30.5468 37.9354 30.923 37.9354H36.8672C37.2435 37.9354 37.5484 37.6266 37.5484 37.2455V30.6227C37.5484 30.2417 37.2435 29.9329 36.8672 29.9329H30.923C30.5468 29.9329 30.2418 30.2417 30.2418 30.6227V33.2443H27.3191C26.5669 33.2435 25.9576 32.6261 25.9568 31.8645V27.487H27.74C28.1162 27.487 28.4211 27.1782 28.4211 26.7972V21.2027C28.4211 20.8217 28.1162 20.5128 27.74 20.5128H25.9568V16.1354C25.9576 15.3738 26.5669 14.7564 27.3191 14.7556H30.2418V17.3771C30.2418 17.7582 30.5468 18.067 30.923 18.067H36.8672C37.2435 18.067 37.5484 17.7582 37.5484 17.3771V10.7543C37.5484 10.3733 37.2435 10.0645 36.8672 10.0645Z" fill="white"/>
<defs>
<linearGradient id="paint0_linear_6331_65614" x1="24" y1="0" x2="24" y2="48" gradientUnits="userSpaceOnUse">
<stop stop-color="#FCA549"/>
<stop offset="1" stop-color="#F39531"/>
</linearGradient>
</defs>
</svg>
