<svg width="20" height="20" viewBox="0 0 20 20" fill="none" xmlns="http://www.w3.org/2000/svg">
<path d="M12.2667 7.32533L8.69166 10.9087L7.31666 9.53366C7.24195 9.44642 7.15002 9.37557 7.04663 9.32555C6.94325 9.27554 6.83064 9.24743 6.71587 9.24299C6.60111 9.23856 6.48666 9.2579 6.37972 9.29979C6.27279 9.34169 6.17566 9.40524 6.09445 9.48645C6.01324 9.56766 5.94969 9.66479 5.9078 9.77172C5.8659 9.87866 5.84656 9.9931 5.85099 10.1079C5.85543 10.2226 5.88354 10.3352 5.93356 10.4386C5.98357 10.542 6.05443 10.634 6.14166 10.7087L8.09999 12.6753C8.17786 12.7526 8.27021 12.8137 8.37174 12.8551C8.47327 12.8966 8.58199 12.9176 8.69166 12.917C8.91028 12.9161 9.11978 12.8293 9.27499 12.6753L13.4417 8.50866C13.5198 8.43119 13.5818 8.33902 13.6241 8.23747C13.6664 8.13592 13.6882 8.027 13.6882 7.91699C13.6882 7.80698 13.6664 7.69806 13.6241 7.59651C13.5818 7.49496 13.5198 7.40279 13.4417 7.32533C13.2855 7.17012 13.0743 7.083 12.8542 7.083C12.634 7.083 12.4228 7.17012 12.2667 7.32533ZM9.99999 1.66699C8.35182 1.66699 6.74065 2.15573 5.37024 3.07141C3.99983 3.98709 2.93173 5.28858 2.301 6.8113C1.67027 8.33401 1.50524 10.0096 1.82678 11.6261C2.14833 13.2426 2.942 14.7274 4.10744 15.8929C5.27287 17.0583 6.75773 17.852 8.37424 18.1735C9.99075 18.4951 11.6663 18.3301 13.189 17.6993C14.7117 17.0686 16.0132 16.0005 16.9289 14.6301C17.8446 13.2597 18.3333 11.6485 18.3333 10.0003C18.3333 8.90598 18.1178 7.82234 17.699 6.8113C17.2802 5.80025 16.6664 4.88159 15.8925 4.10777C15.1187 3.33395 14.2001 2.72012 13.189 2.30133C12.178 1.88254 11.0943 1.66699 9.99999 1.66699ZM9.99999 16.667C8.68145 16.667 7.39252 16.276 6.29619 15.5435C5.19986 14.8109 4.34538 13.7697 3.8408 12.5515C3.33621 11.3334 3.20419 9.99293 3.46143 8.69972C3.71866 7.40652 4.3536 6.21863 5.28595 5.28628C6.2183 4.35393 7.40619 3.71899 8.69939 3.46176C9.9926 3.20452 11.333 3.33654 12.5512 3.84113C13.7694 4.34571 14.8106 5.2002 15.5431 6.29652C16.2757 7.39285 16.6667 8.68178 16.6667 10.0003C16.6667 11.7684 15.9643 13.4641 14.714 14.7144C13.4638 15.9646 11.7681 16.667 9.99999 16.667Z" fill="#959595"/>
</svg>
