<svg width="18" height="18" viewBox="0 0 18 18" fill="none" xmlns="http://www.w3.org/2000/svg">
<path d="M15.75 4.5H2.25C2.05109 4.5 1.86032 4.57902 1.71967 4.71967C1.57902 4.86032 1.5 5.05109 1.5 5.25C1.5 5.44891 1.57902 5.63968 1.71967 5.78033C1.86032 5.92098 2.05109 6 2.25 6H15.75C15.9489 6 16.1397 5.92098 16.2803 5.78033C16.421 5.63968 16.5 5.44891 16.5 5.25C16.5 5.05109 16.421 4.86032 16.2803 4.71967C16.1397 4.57902 15.9489 4.5 15.75 4.5Z" fill="#959595"/>
<path d="M5.25 8.25H12.75C12.9489 8.25 13.1397 8.32902 13.2803 8.46967C13.421 8.61032 13.5 8.80109 13.5 9C13.5 9.19891 13.421 9.38968 13.2803 9.53033C13.1397 9.67098 12.9489 9.75 12.75 9.75H5.25C5.05109 9.75 4.86032 9.67098 4.71967 9.53033C4.57902 9.38968 4.5 9.19891 4.5 9C4.5 8.80109 4.57902 8.61032 4.71967 8.46967C4.86032 8.32902 5.05109 8.25 5.25 8.25Z" fill="#959595"/>
<path d="M7.5 12H10.7197C10.9186 12 11.1093 12.079 11.25 12.2197C11.3907 12.3603 11.4697 12.5511 11.4697 12.75C11.4697 12.9489 11.3907 13.1397 11.25 13.2803C11.1093 13.421 10.9186 13.5 10.7197 13.5H7.5C7.30109 13.5 7.11032 13.421 6.96967 13.2803C6.82902 13.1397 6.75 12.9489 6.75 12.75C6.75 12.5511 6.82902 12.3603 6.96967 12.2197C7.11032 12.079 7.30109 12 7.5 12Z" fill="#959595"/>
</svg>
