<svg width="20" height="20" viewBox="0 0 20 20" fill="none" xmlns="http://www.w3.org/2000/svg">
<path d="M2.08333 7.38319L9.58333 11.7165C9.71002 11.7897 9.85372 11.8282 10 11.8282C10.1463 11.8282 10.29 11.7897 10.4167 11.7165L17.9167 7.38319C18.0426 7.31048 18.1473 7.20608 18.2204 7.08035C18.2935 6.95462 18.3325 6.81196 18.3333 6.66653C18.3339 6.51969 18.2957 6.3753 18.2225 6.24798C18.1493 6.12067 18.0438 6.01495 17.9167 5.94153L10.4167 1.61653C10.29 1.54339 10.1463 1.50488 10 1.50488C9.85372 1.50488 9.71002 1.54339 9.58333 1.61653L2.08333 5.94153C1.95616 6.01495 1.85065 6.12067 1.77748 6.24798C1.70431 6.3753 1.66608 6.51969 1.66667 6.66653C1.66754 6.81196 1.70647 6.95462 1.77956 7.08035C1.85266 7.20608 1.95739 7.31048 2.08333 7.38319ZM10 3.33319L15.8333 6.66653L10 9.99986L4.16667 6.66653L10 3.33319ZM17.0833 9.3082L10 13.3332L2.91667 9.27486C2.82156 9.21976 2.71648 9.18402 2.6075 9.1697C2.49852 9.15539 2.38778 9.16277 2.28166 9.19143C2.17555 9.22009 2.07615 9.26946 1.98919 9.33669C1.90224 9.40393 1.82944 9.48771 1.775 9.5832C1.66636 9.77454 1.6378 10.0011 1.69557 10.2134C1.75333 10.4257 1.89272 10.6066 2.08333 10.7165L9.58333 15.0499C9.71002 15.123 9.85372 15.1615 10 15.1615C10.1463 15.1615 10.29 15.123 10.4167 15.0499L17.9167 10.7165C18.1073 10.6066 18.2467 10.4257 18.3044 10.2134C18.3622 10.0011 18.3336 9.77454 18.225 9.5832C18.1706 9.48771 18.0978 9.40393 18.0108 9.33669C17.9239 9.26946 17.8245 9.22009 17.7183 9.19143C17.6122 9.16277 17.5015 9.15539 17.3925 9.1697C17.2835 9.18402 17.1784 9.21976 17.0833 9.27486V9.3082ZM17.0833 12.6415L10 16.6665L2.91667 12.6082C2.82156 12.5531 2.71648 12.5174 2.6075 12.503C2.49852 12.4887 2.38778 12.4961 2.28166 12.5248C2.17555 12.5534 2.07615 12.6028 1.98919 12.67C1.90224 12.7373 1.82944 12.821 1.775 12.9165C1.66636 13.1079 1.6378 13.3344 1.69557 13.5467C1.75333 13.7591 1.89272 13.9399 2.08333 14.0499L9.58333 18.3832C9.71002 18.4563 9.85372 18.4948 10 18.4948C10.1463 18.4948 10.29 18.4563 10.4167 18.3832L17.9167 14.0499C18.1073 13.9399 18.2467 13.7591 18.3044 13.5467C18.3622 13.3344 18.3336 13.1079 18.225 12.9165C18.1706 12.821 18.0978 12.7373 18.0108 12.67C17.9239 12.6028 17.8245 12.5534 17.7183 12.5248C17.6122 12.4961 17.5015 12.4887 17.3925 12.503C17.2835 12.5174 17.1784 12.5531 17.0833 12.6082V12.6415Z" fill="#959595"/>
</svg>
