<svg width="20" height="20" viewBox="0 0 20 20" fill="none" xmlns="http://www.w3.org/2000/svg">
<path d="M2.91665 5C2.75183 5 2.59071 5.04887 2.45367 5.14044C2.31663 5.23201 2.20982 5.36216 2.14675 5.51443C2.08367 5.6667 2.06717 5.83426 2.09933 5.99591C2.13148 6.15756 2.21085 6.30604 2.32739 6.42259C2.44393 6.53913 2.59242 6.6185 2.75407 6.65065C2.91572 6.68281 3.08328 6.66631 3.23555 6.60323C3.38782 6.54016 3.51797 6.43335 3.60954 6.29631C3.70111 6.15927 3.74998 5.99815 3.74998 5.83333C3.74998 5.61232 3.66218 5.40036 3.5059 5.24408C3.34962 5.0878 3.13766 5 2.91665 5ZM6.24998 6.66667H17.9166C18.1377 6.66667 18.3496 6.57887 18.5059 6.42259C18.6622 6.26631 18.75 6.05435 18.75 5.83333C18.75 5.61232 18.6622 5.40036 18.5059 5.24408C18.3496 5.0878 18.1377 5 17.9166 5H6.24998C6.02897 5 5.81701 5.0878 5.66072 5.24408C5.50444 5.40036 5.41665 5.61232 5.41665 5.83333C5.41665 6.05435 5.50444 6.26631 5.66072 6.42259C5.81701 6.57887 6.02897 6.66667 6.24998 6.66667ZM6.24998 9.16667C6.08516 9.16667 5.92405 9.21554 5.78701 9.30711C5.64996 9.39868 5.54315 9.52882 5.48008 9.6811C5.41701 9.83337 5.4005 10.0009 5.43266 10.1626C5.46481 10.3242 5.54418 10.4727 5.66072 10.5893C5.77727 10.7058 5.92575 10.7852 6.08741 10.8173C6.24906 10.8495 6.41661 10.833 6.56888 10.7699C6.72115 10.7068 6.8513 10.6 6.94287 10.463C7.03444 10.3259 7.08331 10.1648 7.08331 10C7.08331 9.77899 6.99552 9.56702 6.83924 9.41074C6.68296 9.25446 6.47099 9.16667 6.24998 9.16667ZM9.58331 13.3333C9.4185 13.3333 9.25738 13.3822 9.12034 13.4738C8.9833 13.5653 8.87649 13.6955 8.81341 13.8478C8.75034 14 8.73384 14.1676 8.76599 14.3292C8.79815 14.4909 8.87751 14.6394 8.99406 14.7559C9.1106 14.8725 9.25909 14.9518 9.42074 14.984C9.58239 15.0161 9.74995 14.9996 9.90222 14.9366C10.0545 14.8735 10.1846 14.7667 10.2762 14.6296C10.3678 14.4926 10.4166 14.3315 10.4166 14.1667C10.4166 13.9457 10.3288 13.7337 10.1726 13.5774C10.0163 13.4211 9.80433 13.3333 9.58331 13.3333ZM17.9166 9.16667H9.58331C9.3623 9.16667 9.15034 9.25446 8.99406 9.41074C8.83778 9.56702 8.74998 9.77899 8.74998 10C8.74998 10.221 8.83778 10.433 8.99406 10.5893C9.15034 10.7455 9.3623 10.8333 9.58331 10.8333H17.9166C18.1377 10.8333 18.3496 10.7455 18.5059 10.5893C18.6622 10.433 18.75 10.221 18.75 10C18.75 9.77899 18.6622 9.56702 18.5059 9.41074C18.3496 9.25446 18.1377 9.16667 17.9166 9.16667ZM17.9166 13.3333H12.9166C12.6956 13.3333 12.4837 13.4211 12.3274 13.5774C12.1711 13.7337 12.0833 13.9457 12.0833 14.1667C12.0833 14.3877 12.1711 14.5996 12.3274 14.7559C12.4837 14.9122 12.6956 15 12.9166 15H17.9166C18.1377 15 18.3496 14.9122 18.5059 14.7559C18.6622 14.5996 18.75 14.3877 18.75 14.1667C18.75 13.9457 18.6622 13.7337 18.5059 13.5774C18.3496 13.4211 18.1377 13.3333 17.9166 13.3333Z" fill="#959595"/>
</svg>
