<svg width="20" height="20" viewBox="0 0 20 20" fill="none" xmlns="http://www.w3.org/2000/svg">
<path fill-rule="evenodd" clip-rule="evenodd" d="M9.99996 0.833008C8.45287 0.833008 6.96914 1.44759 5.87517 2.54155C4.78121 3.63551 4.16663 5.11925 4.16663 6.66634C4.16663 9.46022 3.56907 11.1952 3.01838 12.2048C2.74189 12.7117 2.47265 13.0442 2.28563 13.2417C2.1919 13.3406 2.11824 13.4062 2.0739 13.4431C2.05171 13.4616 2.03684 13.473 2.03042 13.4778L2.02804 13.4795C1.7293 13.6847 1.5971 14.0601 1.70239 14.4078C1.8088 14.7593 2.13274 14.9997 2.49996 14.9997H17.5C17.8672 14.9997 18.1911 14.7593 18.2975 14.4078C18.4028 14.0601 18.2706 13.6847 17.9719 13.4795L17.9695 13.4778C17.9631 13.473 17.9482 13.4616 17.926 13.4431C17.8817 13.4062 17.808 13.3406 17.7143 13.2417C17.5273 13.0442 17.258 12.7117 16.9815 12.2048C16.4309 11.1952 15.8333 9.46022 15.8333 6.66634C15.8333 5.11925 15.2187 3.63551 14.1248 2.54155C13.0308 1.44759 11.5471 0.833008 9.99996 0.833008ZM15.5184 13.0029C15.5818 13.1191 15.6455 13.2291 15.7089 13.333H4.29107C4.35447 13.2291 4.41813 13.1191 4.48154 13.0029C5.18085 11.7208 5.8333 9.70579 5.8333 6.66634C5.8333 5.56127 6.27228 4.50146 7.05369 3.72006C7.83509 2.93866 8.8949 2.49967 9.99996 2.49967C11.105 2.49967 12.1648 2.93866 12.9462 3.72006C13.7276 4.50146 14.1666 5.56127 14.1666 6.66634C14.1666 9.70579 14.8191 11.7208 15.5184 13.0029ZM9.27914 17.0816C9.04821 16.6835 8.53827 16.5479 8.14017 16.7789C7.74206 17.0098 7.60654 17.5197 7.83748 17.9179C8.05724 18.2967 8.37267 18.6112 8.75219 18.8298C9.13171 19.0484 9.562 19.1634 9.99998 19.1634C10.4379 19.1634 10.8682 19.0484 11.2478 18.8298C11.6273 18.6112 11.9427 18.2967 12.1625 17.9179C12.3934 17.5197 12.2579 17.0098 11.8598 16.7789C11.4617 16.5479 10.9517 16.6835 10.7208 17.0816C10.6476 17.2079 10.5424 17.3127 10.4159 17.3855C10.2894 17.4584 10.146 17.4968 9.99998 17.4968C9.85398 17.4968 9.71055 17.4584 9.58405 17.3855C9.45754 17.3127 9.3524 17.2079 9.27914 17.0816Z" fill="black"/>
</svg>
