<svg width="20" height="20" viewBox="0 0 20 20" fill="none" xmlns="http://www.w3.org/2000/svg">
<path d="M15.8333 9.16634H10.8333V4.16634C10.8333 3.94533 10.7455 3.73337 10.5893 3.57709C10.433 3.42081 10.221 3.33301 10 3.33301C9.779 3.33301 9.56703 3.42081 9.41075 3.57709C9.25447 3.73337 9.16668 3.94533 9.16668 4.16634V9.16634H4.16668C3.94566 9.16634 3.7337 9.25414 3.57742 9.41042C3.42114 9.5667 3.33334 9.77866 3.33334 9.99967C3.33334 10.2207 3.42114 10.4326 3.57742 10.5889C3.7337 10.7452 3.94566 10.833 4.16668 10.833H9.16668V15.833C9.16668 16.054 9.25447 16.266 9.41075 16.4223C9.56703 16.5785 9.779 16.6663 10 16.6663C10.221 16.6663 10.433 16.5785 10.5893 16.4223C10.7455 16.266 10.8333 16.054 10.8333 15.833V10.833H15.8333C16.0544 10.833 16.2663 10.7452 16.4226 10.5889C16.5789 10.4326 16.6667 10.2207 16.6667 9.99967C16.6667 9.77866 16.5789 9.5667 16.4226 9.41042C16.2663 9.25414 16.0544 9.16634 15.8333 9.16634Z" fill="white"/>
</svg>
