<svg width="20" height="20" viewBox="0 0 20 20" fill="none" xmlns="http://www.w3.org/2000/svg">
<path d="M18.0917 16.9085L15 13.8418C16.2001 12.3455 16.7812 10.4462 16.624 8.53458C16.4668 6.62292 15.5831 4.84415 14.1546 3.56403C12.7261 2.28392 10.8615 1.59976 8.9441 1.65222C7.0267 1.70469 5.20226 2.4898 3.84595 3.84612C2.48963 5.20243 1.70452 7.02686 1.65206 8.94427C1.59959 10.8617 2.28375 12.7263 3.56387 14.1548C4.84398 15.5832 6.62275 16.4669 8.53441 16.6242C10.4461 16.7814 12.3453 16.2002 13.8417 15.0002L16.9083 18.0668C16.9858 18.1449 17.078 18.2069 17.1795 18.2492C17.2811 18.2915 17.39 18.3133 17.5 18.3133C17.61 18.3133 17.7189 18.2915 17.8205 18.2492C17.922 18.2069 18.0142 18.1449 18.0917 18.0668C18.2419 17.9114 18.3258 17.7038 18.3258 17.4877C18.3258 17.2715 18.2419 17.0639 18.0917 16.9085ZM9.16666 15.0002C8.01294 15.0002 6.88512 14.658 5.92584 14.0171C4.96655 13.3761 4.21888 12.4651 3.77737 11.3992C3.33585 10.3332 3.22034 9.16036 3.44542 8.0288C3.6705 6.89725 4.22607 5.85785 5.04187 5.04204C5.85768 4.22624 6.89708 3.67066 8.02864 3.44558C9.16019 3.2205 10.3331 3.33602 11.399 3.77753C12.4649 4.21904 13.3759 4.96672 14.0169 5.926C14.6579 6.88529 15 8.01311 15 9.16683C15 10.7139 14.3854 12.1977 13.2915 13.2916C12.1975 14.3856 10.7138 15.0002 9.16666 15.0002Z" fill="#959595"/>
</svg>
